<svg width="9" height="10" viewBox="0 0 9 10" fill="none" xmlns="http://www.w3.org/2000/svg">
<path d="M0.351563 3.3501H8.35156M3.01823 6.3501L3.90712 7.3501L5.6849 5.3501M2.12934 0.350098V1.3501M6.57378 0.350098V1.3501M1.77378 9.3501H6.92934C7.42716 9.3501 7.6761 9.3501 7.86623 9.2411C8.03347 9.14525 8.16947 8.99225 8.25467 8.8041C8.35156 8.5902 8.35156 8.31015 8.35156 7.7501V2.9501C8.35156 2.39004 8.35156 2.11002 8.25467 1.89611C8.16947 1.70794 8.03347 1.55496 7.86623 1.45909C7.6761 1.3501 7.42716 1.3501 6.92934 1.3501H1.77378C1.27596 1.3501 1.02705 1.3501 0.836905 1.45909C0.669647 1.55496 0.533665 1.70794 0.448447 1.89611C0.351562 2.11002 0.351563 2.39004 0.351563 2.9501V7.7501C0.351563 8.31015 0.351562 8.5902 0.448447 8.8041C0.533665 8.99225 0.669647 9.14525 0.836905 9.2411C1.02705 9.3501 1.27596 9.3501 1.77378 9.3501Z" stroke="black" stroke-width="0.7" stroke-linecap="round" stroke-linejoin="round"/>
</svg>
