<svg width="11" height="11" viewBox="0 0 11 11" fill="none" xmlns="http://www.w3.org/2000/svg">
<g clip-path="url(#clip0_1_1309)">
<mask id="path-1-outside-1_1_1309" maskUnits="userSpaceOnUse" x="-0.542969" y="-0.541504" width="12" height="12" fill="black">
<rect fill="white" x="-0.542969" y="-0.541504" width="12" height="12"/>
<path d="M10.5404 0.458496V8.7085H9.16537V8.25016H10.082V0.916829H0.915365V8.25016H4.58203V8.7085H0.457031V0.458496H10.5404ZM7.33203 1.37516H3.66536V1.8335H7.33203V1.37516ZM6.41537 2.75016V2.29183H4.58203V2.75016H6.41537ZM3.20703 5.04183H1.3737V5.50016H3.20703V5.04183ZM3.20703 5.9585H1.3737V6.41683H3.20703V5.9585ZM1.3737 7.3335H2.29036V6.87516H1.3737V7.3335ZM7.79037 5.9585C7.79037 6.1398 7.7366 6.31702 7.63588 6.46777C7.53515 6.61851 7.39199 6.73601 7.22449 6.80539C7.05699 6.87477 6.87268 6.89292 6.69487 6.85755C6.51705 6.82218 6.35372 6.73488 6.22552 6.60668C6.09732 6.47848 6.01002 6.31515 5.97465 6.13733C5.93928 5.95951 5.95743 5.7752 6.02681 5.6077C6.09619 5.4402 6.21368 5.29704 6.36443 5.19632C6.51517 5.09559 6.6924 5.04183 6.8737 5.04183C7.11674 5.04207 7.34976 5.13873 7.52161 5.31058C7.69347 5.48244 7.79012 5.71546 7.79037 5.9585ZM7.33203 5.9585C7.33203 5.86785 7.30515 5.77923 7.25479 5.70386C7.20443 5.62849 7.13284 5.56974 7.0491 5.53505C6.96535 5.50036 6.87319 5.49128 6.78428 5.50897C6.69537 5.52665 6.61371 5.57031 6.54961 5.63441C6.48551 5.6985 6.44186 5.78017 6.42417 5.86908C6.40649 5.95799 6.41556 6.05014 6.45025 6.13389C6.48494 6.21764 6.54369 6.28922 6.61906 6.33959C6.69443 6.38995 6.78305 6.41683 6.8737 6.41683C6.99522 6.41671 7.11173 6.36838 7.19766 6.28245C7.28358 6.19653 7.33191 6.08002 7.33203 5.9585ZM7.33295 3.99087C7.35363 4.04904 7.38625 4.10224 7.42873 4.14704C7.47121 4.19184 7.52259 4.22725 7.57958 4.251C7.63657 4.27474 7.6979 4.28629 7.75962 4.28491C7.82134 4.28352 7.88208 4.26923 7.93795 4.24295C8.02926 4.20029 8.13141 4.18651 8.23076 4.20347C8.33011 4.22042 8.42192 4.2673 8.49391 4.33783C8.56518 4.40906 8.61269 4.50059 8.62992 4.59987C8.64715 4.69915 8.63326 4.80133 8.59016 4.89241C8.56362 4.94832 8.5491 5.00917 8.54753 5.07103C8.54596 5.13289 8.55738 5.1944 8.58105 5.25158C8.60471 5.30876 8.6401 5.36034 8.68493 5.403C8.72976 5.44566 8.78304 5.47845 8.84132 5.49925C8.93604 5.53308 9.01798 5.59537 9.07592 5.67758C9.13385 5.7598 9.16495 5.85792 9.16495 5.9585C9.16495 6.05907 9.13385 6.15719 9.07592 6.23941C9.01798 6.32162 8.93604 6.38391 8.84132 6.41775C8.78302 6.43845 8.7297 6.47115 8.68482 6.51375C8.63994 6.55634 8.6045 6.60788 8.58079 6.66503C8.55707 6.72218 8.54561 6.78367 8.54715 6.84552C8.54868 6.90737 8.56318 6.96822 8.5897 7.02412C8.62206 7.09049 8.63871 7.16341 8.63837 7.23725C8.63804 7.31108 8.62071 7.38385 8.58775 7.44991C8.55478 7.51598 8.50705 7.57358 8.44826 7.61824C8.38947 7.66291 8.32119 7.69345 8.2487 7.7075V10.9369L6.8737 9.77366L5.4987 10.9369V7.7075C5.42627 7.69343 5.35805 7.66289 5.29931 7.61826C5.24057 7.57362 5.19287 7.51608 5.15991 7.45007C5.12695 7.38406 5.10961 7.31136 5.10923 7.23758C5.10884 7.1638 5.12543 7.09093 5.1577 7.02458C5.1843 6.96866 5.19885 6.90777 5.20043 6.84586C5.202 6.78396 5.19056 6.72241 5.16684 6.6652C5.14312 6.608 5.10765 6.55641 5.06273 6.51379C5.01781 6.47116 4.96444 6.43844 4.90607 6.41775C4.81136 6.38391 4.72942 6.32162 4.67148 6.23941C4.61354 6.15719 4.58244 6.05907 4.58244 5.9585C4.58244 5.85792 4.61354 5.7598 4.67148 5.67758C4.72942 5.59537 4.81136 5.53308 4.90607 5.49925C4.9644 5.47849 5.01772 5.44574 5.0626 5.4031C5.10748 5.36046 5.14292 5.30889 5.16663 5.2517C5.19034 5.19452 5.2018 5.133 5.20026 5.07111C5.19872 5.00922 5.18422 4.94835 5.1577 4.89241C5.11454 4.80138 5.10057 4.69922 5.11772 4.59994C5.13487 4.50066 5.18229 4.40911 5.25349 4.33783C5.3255 4.26747 5.41724 4.22074 5.51649 4.20387C5.61575 4.187 5.71778 4.20079 5.80899 4.24341C5.86488 4.26968 5.92566 4.28395 5.9874 4.28531C6.04915 4.28666 6.11049 4.27507 6.16748 4.25128C6.22447 4.22749 6.27585 4.19203 6.31831 4.14718C6.36077 4.10233 6.39336 4.04908 6.41399 3.99087C6.44773 3.896 6.51001 3.81389 6.59228 3.75583C6.67455 3.69777 6.77277 3.6666 6.87347 3.6666C6.97416 3.6666 7.07239 3.69777 7.15466 3.75583C7.23693 3.81389 7.29921 3.896 7.33295 3.99087ZM7.79037 9.94921V7.6392C7.69278 7.62684 7.59391 7.64861 7.51054 7.70082C7.42717 7.75303 7.36443 7.83247 7.33295 7.92566C7.29912 8.02038 7.23683 8.10232 7.15461 8.16026C7.07239 8.21819 6.97428 8.24929 6.8737 8.24929C6.77312 8.24929 6.675 8.21819 6.59279 8.16026C6.51057 8.10232 6.44828 8.02038 6.41445 7.92566C6.38297 7.83247 6.32022 7.75303 6.23685 7.70082C6.15348 7.64861 6.05462 7.62684 5.95703 7.6392V9.94875L6.8737 9.17325L7.79037 9.94921ZM6.9012 7.77258C6.96356 7.5972 7.07867 7.44543 7.23073 7.33809C7.3828 7.23075 7.56436 7.17311 7.75049 7.17308C7.88831 7.17456 8.02423 7.20533 8.14924 7.26337L8.17582 7.22166C8.12165 7.10788 8.09197 6.98398 8.08871 6.858C8.08545 6.73202 8.10868 6.60675 8.1569 6.49032C8.20512 6.37388 8.27724 6.26887 8.36862 6.18207C8.45999 6.09527 8.56857 6.02863 8.68732 5.98645V5.93054C8.56865 5.88824 8.46017 5.82153 8.36888 5.73471C8.27759 5.6479 8.20552 5.5429 8.15732 5.4265C8.10912 5.31011 8.08586 5.1849 8.08905 5.05895C8.09224 4.93301 8.1218 4.80914 8.17582 4.69533L8.13595 4.65683C8.02214 4.71084 7.89827 4.74038 7.77234 4.74353C7.64641 4.74669 7.52121 4.72339 7.40485 4.67514C7.28848 4.62689 7.18353 4.55477 7.09678 4.46343C7.01002 4.37209 6.9434 4.26357 6.9012 4.14487H6.8462C6.804 4.26357 6.73737 4.37209 6.65062 4.46343C6.56387 4.55477 6.45892 4.62689 6.34255 4.67514C6.22618 4.72339 6.10099 4.74669 5.97506 4.74353C5.84912 4.74038 5.72525 4.71084 5.61145 4.65683L5.57157 4.69533C5.6256 4.80914 5.65516 4.93301 5.65835 5.05895C5.66154 5.1849 5.63828 5.31011 5.59008 5.4265C5.54188 5.5429 5.46981 5.6479 5.37852 5.73471C5.28723 5.82153 5.17874 5.88824 5.06007 5.93054V5.98645C5.17883 6.02863 5.28741 6.09527 5.37878 6.18207C5.47015 6.26887 5.54228 6.37388 5.5905 6.49032C5.63871 6.60675 5.66194 6.73202 5.65868 6.858C5.65542 6.98398 5.62575 7.10788 5.57157 7.22166L5.59816 7.26291C5.7232 7.20503 5.85912 7.17441 5.99691 7.17308C6.18304 7.17311 6.3646 7.23075 6.51666 7.33809C6.66873 7.44543 6.78384 7.5972 6.8462 7.77258L6.8737 7.79183L6.9012 7.77258Z"/>
</mask>
<path d="M10.5404 0.458496V8.7085H9.16537V8.25016H10.082V0.916829H0.915365V8.25016H4.58203V8.7085H0.457031V0.458496H10.5404ZM7.33203 1.37516H3.66536V1.8335H7.33203V1.37516ZM6.41537 2.75016V2.29183H4.58203V2.75016H6.41537ZM3.20703 5.04183H1.3737V5.50016H3.20703V5.04183ZM3.20703 5.9585H1.3737V6.41683H3.20703V5.9585ZM1.3737 7.3335H2.29036V6.87516H1.3737V7.3335ZM7.79037 5.9585C7.79037 6.1398 7.7366 6.31702 7.63588 6.46777C7.53515 6.61851 7.39199 6.73601 7.22449 6.80539C7.05699 6.87477 6.87268 6.89292 6.69487 6.85755C6.51705 6.82218 6.35372 6.73488 6.22552 6.60668C6.09732 6.47848 6.01002 6.31515 5.97465 6.13733C5.93928 5.95951 5.95743 5.7752 6.02681 5.6077C6.09619 5.4402 6.21368 5.29704 6.36443 5.19632C6.51517 5.09559 6.6924 5.04183 6.8737 5.04183C7.11674 5.04207 7.34976 5.13873 7.52161 5.31058C7.69347 5.48244 7.79012 5.71546 7.79037 5.9585ZM7.33203 5.9585C7.33203 5.86785 7.30515 5.77923 7.25479 5.70386C7.20443 5.62849 7.13284 5.56974 7.0491 5.53505C6.96535 5.50036 6.87319 5.49128 6.78428 5.50897C6.69537 5.52665 6.61371 5.57031 6.54961 5.63441C6.48551 5.6985 6.44186 5.78017 6.42417 5.86908C6.40649 5.95799 6.41556 6.05014 6.45025 6.13389C6.48494 6.21764 6.54369 6.28922 6.61906 6.33959C6.69443 6.38995 6.78305 6.41683 6.8737 6.41683C6.99522 6.41671 7.11173 6.36838 7.19766 6.28245C7.28358 6.19653 7.33191 6.08002 7.33203 5.9585ZM7.33295 3.99087C7.35363 4.04904 7.38625 4.10224 7.42873 4.14704C7.47121 4.19184 7.52259 4.22725 7.57958 4.251C7.63657 4.27474 7.6979 4.28629 7.75962 4.28491C7.82134 4.28352 7.88208 4.26923 7.93795 4.24295C8.02926 4.20029 8.13141 4.18651 8.23076 4.20347C8.33011 4.22042 8.42192 4.2673 8.49391 4.33783C8.56518 4.40906 8.61269 4.50059 8.62992 4.59987C8.64715 4.69915 8.63326 4.80133 8.59016 4.89241C8.56362 4.94832 8.5491 5.00917 8.54753 5.07103C8.54596 5.13289 8.55738 5.1944 8.58105 5.25158C8.60471 5.30876 8.6401 5.36034 8.68493 5.403C8.72976 5.44566 8.78304 5.47845 8.84132 5.49925C8.93604 5.53308 9.01798 5.59537 9.07592 5.67758C9.13385 5.7598 9.16495 5.85792 9.16495 5.9585C9.16495 6.05907 9.13385 6.15719 9.07592 6.23941C9.01798 6.32162 8.93604 6.38391 8.84132 6.41775C8.78302 6.43845 8.7297 6.47115 8.68482 6.51375C8.63994 6.55634 8.6045 6.60788 8.58079 6.66503C8.55707 6.72218 8.54561 6.78367 8.54715 6.84552C8.54868 6.90737 8.56318 6.96822 8.5897 7.02412C8.62206 7.09049 8.63871 7.16341 8.63837 7.23725C8.63804 7.31108 8.62071 7.38385 8.58775 7.44991C8.55478 7.51598 8.50705 7.57358 8.44826 7.61824C8.38947 7.66291 8.32119 7.69345 8.2487 7.7075V10.9369L6.8737 9.77366L5.4987 10.9369V7.7075C5.42627 7.69343 5.35805 7.66289 5.29931 7.61826C5.24057 7.57362 5.19287 7.51608 5.15991 7.45007C5.12695 7.38406 5.10961 7.31136 5.10923 7.23758C5.10884 7.1638 5.12543 7.09093 5.1577 7.02458C5.1843 6.96866 5.19885 6.90777 5.20043 6.84586C5.202 6.78396 5.19056 6.72241 5.16684 6.6652C5.14312 6.608 5.10765 6.55641 5.06273 6.51379C5.01781 6.47116 4.96444 6.43844 4.90607 6.41775C4.81136 6.38391 4.72942 6.32162 4.67148 6.23941C4.61354 6.15719 4.58244 6.05907 4.58244 5.9585C4.58244 5.85792 4.61354 5.7598 4.67148 5.67758C4.72942 5.59537 4.81136 5.53308 4.90607 5.49925C4.9644 5.47849 5.01772 5.44574 5.0626 5.4031C5.10748 5.36046 5.14292 5.30889 5.16663 5.2517C5.19034 5.19452 5.2018 5.133 5.20026 5.07111C5.19872 5.00922 5.18422 4.94835 5.1577 4.89241C5.11454 4.80138 5.10057 4.69922 5.11772 4.59994C5.13487 4.50066 5.18229 4.40911 5.25349 4.33783C5.3255 4.26747 5.41724 4.22074 5.51649 4.20387C5.61575 4.187 5.71778 4.20079 5.80899 4.24341C5.86488 4.26968 5.92566 4.28395 5.9874 4.28531C6.04915 4.28666 6.11049 4.27507 6.16748 4.25128C6.22447 4.22749 6.27585 4.19203 6.31831 4.14718C6.36077 4.10233 6.39336 4.04908 6.41399 3.99087C6.44773 3.896 6.51001 3.81389 6.59228 3.75583C6.67455 3.69777 6.77277 3.6666 6.87347 3.6666C6.97416 3.6666 7.07239 3.69777 7.15466 3.75583C7.23693 3.81389 7.29921 3.896 7.33295 3.99087ZM7.79037 9.94921V7.6392C7.69278 7.62684 7.59391 7.64861 7.51054 7.70082C7.42717 7.75303 7.36443 7.83247 7.33295 7.92566C7.29912 8.02038 7.23683 8.10232 7.15461 8.16026C7.07239 8.21819 6.97428 8.24929 6.8737 8.24929C6.77312 8.24929 6.675 8.21819 6.59279 8.16026C6.51057 8.10232 6.44828 8.02038 6.41445 7.92566C6.38297 7.83247 6.32022 7.75303 6.23685 7.70082C6.15348 7.64861 6.05462 7.62684 5.95703 7.6392V9.94875L6.8737 9.17325L7.79037 9.94921ZM6.9012 7.77258C6.96356 7.5972 7.07867 7.44543 7.23073 7.33809C7.3828 7.23075 7.56436 7.17311 7.75049 7.17308C7.88831 7.17456 8.02423 7.20533 8.14924 7.26337L8.17582 7.22166C8.12165 7.10788 8.09197 6.98398 8.08871 6.858C8.08545 6.73202 8.10868 6.60675 8.1569 6.49032C8.20512 6.37388 8.27724 6.26887 8.36862 6.18207C8.45999 6.09527 8.56857 6.02863 8.68732 5.98645V5.93054C8.56865 5.88824 8.46017 5.82153 8.36888 5.73471C8.27759 5.6479 8.20552 5.5429 8.15732 5.4265C8.10912 5.31011 8.08586 5.1849 8.08905 5.05895C8.09224 4.93301 8.1218 4.80914 8.17582 4.69533L8.13595 4.65683C8.02214 4.71084 7.89827 4.74038 7.77234 4.74353C7.64641 4.74669 7.52121 4.72339 7.40485 4.67514C7.28848 4.62689 7.18353 4.55477 7.09678 4.46343C7.01002 4.37209 6.9434 4.26357 6.9012 4.14487H6.8462C6.804 4.26357 6.73737 4.37209 6.65062 4.46343C6.56387 4.55477 6.45892 4.62689 6.34255 4.67514C6.22618 4.72339 6.10099 4.74669 5.97506 4.74353C5.84912 4.74038 5.72525 4.71084 5.61145 4.65683L5.57157 4.69533C5.6256 4.80914 5.65516 4.93301 5.65835 5.05895C5.66154 5.1849 5.63828 5.31011 5.59008 5.4265C5.54188 5.5429 5.46981 5.6479 5.37852 5.73471C5.28723 5.82153 5.17874 5.88824 5.06007 5.93054V5.98645C5.17883 6.02863 5.28741 6.09527 5.37878 6.18207C5.47015 6.26887 5.54228 6.37388 5.5905 6.49032C5.63871 6.60675 5.66194 6.73202 5.65868 6.858C5.65542 6.98398 5.62575 7.10788 5.57157 7.22166L5.59816 7.26291C5.7232 7.20503 5.85912 7.17441 5.99691 7.17308C6.18304 7.17311 6.3646 7.23075 6.51666 7.33809C6.66873 7.44543 6.78384 7.5972 6.8462 7.77258L6.8737 7.79183L6.9012 7.77258Z" fill="black"/>
<path d="M10.5404 0.458496V8.7085H9.16537V8.25016H10.082V0.916829H0.915365V8.25016H4.58203V8.7085H0.457031V0.458496H10.5404ZM7.33203 1.37516H3.66536V1.8335H7.33203V1.37516ZM6.41537 2.75016V2.29183H4.58203V2.75016H6.41537ZM3.20703 5.04183H1.3737V5.50016H3.20703V5.04183ZM3.20703 5.9585H1.3737V6.41683H3.20703V5.9585ZM1.3737 7.3335H2.29036V6.87516H1.3737V7.3335ZM7.79037 5.9585C7.79037 6.1398 7.7366 6.31702 7.63588 6.46777C7.53515 6.61851 7.39199 6.73601 7.22449 6.80539C7.05699 6.87477 6.87268 6.89292 6.69487 6.85755C6.51705 6.82218 6.35372 6.73488 6.22552 6.60668C6.09732 6.47848 6.01002 6.31515 5.97465 6.13733C5.93928 5.95951 5.95743 5.7752 6.02681 5.6077C6.09619 5.4402 6.21368 5.29704 6.36443 5.19632C6.51517 5.09559 6.6924 5.04183 6.8737 5.04183C7.11674 5.04207 7.34976 5.13873 7.52161 5.31058C7.69347 5.48244 7.79012 5.71546 7.79037 5.9585ZM7.33203 5.9585C7.33203 5.86785 7.30515 5.77923 7.25479 5.70386C7.20443 5.62849 7.13284 5.56974 7.0491 5.53505C6.96535 5.50036 6.87319 5.49128 6.78428 5.50897C6.69537 5.52665 6.61371 5.57031 6.54961 5.63441C6.48551 5.6985 6.44186 5.78017 6.42417 5.86908C6.40649 5.95799 6.41556 6.05014 6.45025 6.13389C6.48494 6.21764 6.54369 6.28922 6.61906 6.33959C6.69443 6.38995 6.78305 6.41683 6.8737 6.41683C6.99522 6.41671 7.11173 6.36838 7.19766 6.28245C7.28358 6.19653 7.33191 6.08002 7.33203 5.9585ZM7.33295 3.99087C7.35363 4.04904 7.38625 4.10224 7.42873 4.14704C7.47121 4.19184 7.52259 4.22725 7.57958 4.251C7.63657 4.27474 7.6979 4.28629 7.75962 4.28491C7.82134 4.28352 7.88208 4.26923 7.93795 4.24295C8.02926 4.20029 8.13141 4.18651 8.23076 4.20347C8.33011 4.22042 8.42192 4.2673 8.49391 4.33783C8.56518 4.40906 8.61269 4.50059 8.62992 4.59987C8.64715 4.69915 8.63326 4.80133 8.59016 4.89241C8.56362 4.94832 8.5491 5.00917 8.54753 5.07103C8.54596 5.13289 8.55738 5.1944 8.58105 5.25158C8.60471 5.30876 8.6401 5.36034 8.68493 5.403C8.72976 5.44566 8.78304 5.47845 8.84132 5.49925C8.93604 5.53308 9.01798 5.59537 9.07592 5.67758C9.13385 5.7598 9.16495 5.85792 9.16495 5.9585C9.16495 6.05907 9.13385 6.15719 9.07592 6.23941C9.01798 6.32162 8.93604 6.38391 8.84132 6.41775C8.78302 6.43845 8.7297 6.47115 8.68482 6.51375C8.63994 6.55634 8.6045 6.60788 8.58079 6.66503C8.55707 6.72218 8.54561 6.78367 8.54715 6.84552C8.54868 6.90737 8.56318 6.96822 8.5897 7.02412C8.62206 7.09049 8.63871 7.16341 8.63837 7.23725C8.63804 7.31108 8.62071 7.38385 8.58775 7.44991C8.55478 7.51598 8.50705 7.57358 8.44826 7.61824C8.38947 7.66291 8.32119 7.69345 8.2487 7.7075V10.9369L6.8737 9.77366L5.4987 10.9369V7.7075C5.42627 7.69343 5.35805 7.66289 5.29931 7.61826C5.24057 7.57362 5.19287 7.51608 5.15991 7.45007C5.12695 7.38406 5.10961 7.31136 5.10923 7.23758C5.10884 7.1638 5.12543 7.09093 5.1577 7.02458C5.1843 6.96866 5.19885 6.90777 5.20043 6.84586C5.202 6.78396 5.19056 6.72241 5.16684 6.6652C5.14312 6.608 5.10765 6.55641 5.06273 6.51379C5.01781 6.47116 4.96444 6.43844 4.90607 6.41775C4.81136 6.38391 4.72942 6.32162 4.67148 6.23941C4.61354 6.15719 4.58244 6.05907 4.58244 5.9585C4.58244 5.85792 4.61354 5.7598 4.67148 5.67758C4.72942 5.59537 4.81136 5.53308 4.90607 5.49925C4.9644 5.47849 5.01772 5.44574 5.0626 5.4031C5.10748 5.36046 5.14292 5.30889 5.16663 5.2517C5.19034 5.19452 5.2018 5.133 5.20026 5.07111C5.19872 5.00922 5.18422 4.94835 5.1577 4.89241C5.11454 4.80138 5.10057 4.69922 5.11772 4.59994C5.13487 4.50066 5.18229 4.40911 5.25349 4.33783C5.3255 4.26747 5.41724 4.22074 5.51649 4.20387C5.61575 4.187 5.71778 4.20079 5.80899 4.24341C5.86488 4.26968 5.92566 4.28395 5.9874 4.28531C6.04915 4.28666 6.11049 4.27507 6.16748 4.25128C6.22447 4.22749 6.27585 4.19203 6.31831 4.14718C6.36077 4.10233 6.39336 4.04908 6.41399 3.99087C6.44773 3.896 6.51001 3.81389 6.59228 3.75583C6.67455 3.69777 6.77277 3.6666 6.87347 3.6666C6.97416 3.6666 7.07239 3.69777 7.15466 3.75583C7.23693 3.81389 7.29921 3.896 7.33295 3.99087ZM7.79037 9.94921V7.6392C7.69278 7.62684 7.59391 7.64861 7.51054 7.70082C7.42717 7.75303 7.36443 7.83247 7.33295 7.92566C7.29912 8.02038 7.23683 8.10232 7.15461 8.16026C7.07239 8.21819 6.97428 8.24929 6.8737 8.24929C6.77312 8.24929 6.675 8.21819 6.59279 8.16026C6.51057 8.10232 6.44828 8.02038 6.41445 7.92566C6.38297 7.83247 6.32022 7.75303 6.23685 7.70082C6.15348 7.64861 6.05462 7.62684 5.95703 7.6392V9.94875L6.8737 9.17325L7.79037 9.94921ZM6.9012 7.77258C6.96356 7.5972 7.07867 7.44543 7.23073 7.33809C7.3828 7.23075 7.56436 7.17311 7.75049 7.17308C7.88831 7.17456 8.02423 7.20533 8.14924 7.26337L8.17582 7.22166C8.12165 7.10788 8.09197 6.98398 8.08871 6.858C8.08545 6.73202 8.10868 6.60675 8.1569 6.49032C8.20512 6.37388 8.27724 6.26887 8.36862 6.18207C8.45999 6.09527 8.56857 6.02863 8.68732 5.98645V5.93054C8.56865 5.88824 8.46017 5.82153 8.36888 5.73471C8.27759 5.6479 8.20552 5.5429 8.15732 5.4265C8.10912 5.31011 8.08586 5.1849 8.08905 5.05895C8.09224 4.93301 8.1218 4.80914 8.17582 4.69533L8.13595 4.65683C8.02214 4.71084 7.89827 4.74038 7.77234 4.74353C7.64641 4.74669 7.52121 4.72339 7.40485 4.67514C7.28848 4.62689 7.18353 4.55477 7.09678 4.46343C7.01002 4.37209 6.9434 4.26357 6.9012 4.14487H6.8462C6.804 4.26357 6.73737 4.37209 6.65062 4.46343C6.56387 4.55477 6.45892 4.62689 6.34255 4.67514C6.22618 4.72339 6.10099 4.74669 5.97506 4.74353C5.84912 4.74038 5.72525 4.71084 5.61145 4.65683L5.57157 4.69533C5.6256 4.80914 5.65516 4.93301 5.65835 5.05895C5.66154 5.1849 5.63828 5.31011 5.59008 5.4265C5.54188 5.5429 5.46981 5.6479 5.37852 5.73471C5.28723 5.82153 5.17874 5.88824 5.06007 5.93054V5.98645C5.17883 6.02863 5.28741 6.09527 5.37878 6.18207C5.47015 6.26887 5.54228 6.37388 5.5905 6.49032C5.63871 6.60675 5.66194 6.73202 5.65868 6.858C5.65542 6.98398 5.62575 7.10788 5.57157 7.22166L5.59816 7.26291C5.7232 7.20503 5.85912 7.17441 5.99691 7.17308C6.18304 7.17311 6.3646 7.23075 6.51666 7.33809C6.66873 7.44543 6.78384 7.5972 6.8462 7.77258L6.8737 7.79183L6.9012 7.77258Z" stroke="black" stroke-width="0.2" mask="url(#path-1-outside-1_1_1309)"/>
</g>
<defs>
<clipPath id="clip0_1_1309">
<rect width="11" height="11" fill="white"/>
</clipPath>
</defs>
</svg>
