<svg width="11" height="10" viewBox="0 0 11 10" fill="none" xmlns="http://www.w3.org/2000/svg">
<g clip-path="url(#clip0_1_1264)">
<path d="M5.97754 7.70508C6.11005 7.70508 6.22168 7.80369 6.22168 7.92969C6.22167 8.0557 6.11004 8.1543 5.97754 8.1543H2.26562C2.13326 8.15412 2.0215 8.05558 2.02148 7.92969C2.02148 7.80379 2.13328 7.70526 2.26562 7.70508H5.97754Z" fill="black" stroke="black" stroke-width="0.05"/>
<path d="M5.97754 8.48193C6.11005 8.48193 6.22168 8.58055 6.22168 8.70654C6.22167 8.83255 6.11004 8.93115 5.97754 8.93115H2.26562C2.13326 8.93097 2.0215 8.83243 2.02148 8.70654C2.02148 8.58064 2.13328 8.48212 2.26562 8.48193H5.97754Z" fill="black" stroke="black" stroke-width="0.05"/>
<path d="M5.97754 3.57373C6.11005 3.57373 6.22168 3.67234 6.22168 3.79834C6.22167 3.92435 6.11004 4.02295 5.97754 4.02295H2.26562C2.13326 4.02277 2.0215 3.92423 2.02148 3.79834C2.02148 3.67244 2.13328 3.57391 2.26562 3.57373H5.97754Z" fill="black" stroke="black" stroke-width="0.05"/>
<path d="M5.97754 4.35107C6.11005 4.35107 6.22168 4.44969 6.22168 4.57568C6.22167 4.70169 6.11004 4.80029 5.97754 4.80029H2.26562C2.13326 4.80011 2.0215 4.70157 2.02148 4.57568C2.02148 4.44978 2.13328 4.35126 2.26562 4.35107H5.97754Z" fill="black" stroke="black" stroke-width="0.05"/>
<path d="M5.97656 5.12842C6.1089 5.12864 6.2207 5.22715 6.2207 5.35303C6.22069 5.4789 6.10887 5.57742 5.97656 5.57764H5.86328C5.73094 5.57745 5.61915 5.47892 5.61914 5.35303C5.61914 5.22713 5.73093 5.1286 5.86328 5.12842H5.97656Z" fill="black" stroke="black" stroke-width="0.05"/>
<path d="M5.07812 5.12842C5.21056 5.1285 5.32227 5.22706 5.32227 5.35303C5.32225 5.47898 5.21055 5.57755 5.07812 5.57764H2.26562C2.13326 5.57745 2.0215 5.47892 2.02148 5.35303C2.02148 5.22713 2.13328 5.1286 2.26562 5.12842H5.07812Z" fill="black" stroke="black" stroke-width="0.05"/>
<path d="M9.64551 -0.0253906C9.77805 -0.0253855 9.88967 0.0731997 9.88965 0.199219V7.2959C9.88946 7.42176 9.7779 7.51953 9.64551 7.51953H8.96777V8.13379C8.96777 8.25966 8.85594 8.35817 8.72363 8.3584H8.04492V8.97266C8.04484 9.09861 7.93324 9.19629 7.80078 9.19629H7.13379V9.80078C7.13378 9.92679 7.02215 10.0254 6.88965 10.0254H1.35547C1.22313 10.0252 1.11134 9.92667 1.11133 9.80078V2.7041C1.11149 2.57833 1.22322 2.48065 1.35547 2.48047H2.02246V1.87598C2.02255 1.75013 2.13428 1.65249 2.2666 1.65234H2.94531V1.03809C2.94531 0.912069 3.05694 0.813477 3.18945 0.813477H3.86719V0.199219C3.86719 0.0732728 3.97892 -0.0252799 4.11133 -0.0253906H9.64551ZM1.59961 9.57617H6.64551V2.92871H1.59961V9.57617ZM2.51074 2.48047H6.88965C7.02206 2.48047 7.13362 2.57823 7.13379 2.7041V8.74805H7.55664V2.10059H2.51074V2.48047ZM3.43359 1.65234H7.80078C7.93323 1.65234 8.04482 1.75004 8.04492 1.87598V7.91016H8.47949V1.26172H3.43359V1.65234ZM4.35547 0.813477H8.72363C8.85594 0.813703 8.96777 0.912214 8.96777 1.03809V7.07129H9.40137V0.423828H4.35547V0.813477Z" fill="black" stroke="black" stroke-width="0.05"/>
</g>
<defs>
<clipPath id="clip0_1_1264">
<rect width="11" height="10" fill="white"/>
</clipPath>
</defs>
</svg>
