<svg width="6" height="6" viewBox="0 0 6 6" fill="none" xmlns="http://www.w3.org/2000/svg">
<g clip-path="url(#clip0_1_1944)">
<path d="M3.17719 0.573197L5.42719 2.8232C5.58469 2.9807 5.47319 3.24995 5.25044 3.24995H5.00044V4.74995C5.00044 4.94886 4.92142 5.13962 4.78077 5.28028C4.64011 5.42093 4.44935 5.49995 4.25044 5.49995H4.00044V3.74995C4.00045 3.55864 3.92736 3.37457 3.79612 3.23538C3.66488 3.09619 3.48541 3.01242 3.29444 3.0012L3.25044 2.99995H2.75044C2.55152 2.99995 2.36076 3.07896 2.22011 3.21962C2.07945 3.36027 2.00044 3.55103 2.00044 3.74995V5.49995H1.75044C1.55152 5.49995 1.36076 5.42093 1.22011 5.28028C1.07945 5.13962 1.00044 4.94886 1.00044 4.74995V3.24995H0.750437C0.527937 3.24995 0.416187 2.9807 0.573687 2.8232L2.82369 0.573197C2.87057 0.526329 2.93415 0.5 3.00044 0.5C3.06673 0.5 3.13031 0.526329 3.17719 0.573197ZM3.25044 3.49995C3.31674 3.49995 3.38033 3.52629 3.42721 3.57317C3.4741 3.62005 3.50044 3.68364 3.50044 3.74995V5.49995H2.50044V3.74995C2.50045 3.68871 2.52293 3.62961 2.56362 3.58385C2.60431 3.53809 2.66037 3.50886 2.72119 3.5017L2.75044 3.49995H3.25044Z" fill="#002F70"/>
</g>
<defs>
<clipPath id="clip0_1_1944">
<rect width="6" height="6" fill="white"/>
</clipPath>
</defs>
</svg>
