<svg width="12" height="12" viewBox="0 0 12 12" fill="none" xmlns="http://www.w3.org/2000/svg">
<g clip-path="url(#clip0_1_100)">
<path d="M4.5 0.549805C5.10193 0.549805 5.42572 0.709938 5.70117 0.847656L5.70898 0.851562C5.81746 0.905809 5.91807 0.956063 6.04004 0.992188C6.16257 1.02847 6.30512 1.0498 6.5 1.0498C7.13126 1.04983 7.50776 0.814601 7.63672 0.717773C7.80938 0.588016 8.01446 0.598478 8.15625 0.664062C8.29989 0.730636 8.4502 0.888869 8.4502 1.12109V6.5498H10C10.8004 6.5498 11.4499 7.19814 11.4502 7.99902V9.5C11.4502 9.95376 11.3349 10.3243 11.1396 10.6172C10.9463 10.9069 10.6919 11.0945 10.4512 11.2148C10.2121 11.3344 9.97871 11.3925 9.80859 11.4209C9.70573 11.438 9.60181 11.4504 9.5 11.4502H2.5C2.04625 11.4502 1.67564 11.3349 1.38281 11.1396C1.09306 10.9464 0.905545 10.6919 0.785156 10.4512C0.66563 10.2121 0.607458 9.97866 0.579102 9.80859C0.564759 9.72251 0.557498 9.64964 0.553711 9.59668C0.550542 9.55229 0.54982 9.52657 0.549805 9.5V1.12109C0.549805 0.888866 0.700098 0.73063 0.84375 0.664062C0.985554 0.598472 1.19063 0.588027 1.36328 0.717773C1.49225 0.814606 1.86876 1.0498 2.5 1.0498C2.69489 1.0498 2.83744 1.02847 2.95996 0.992188C3.08193 0.956066 3.18254 0.905809 3.29102 0.851562L3.29883 0.847656C3.57429 0.709937 3.89804 0.549805 4.5 0.549805ZM4.5 1.4502C4.3051 1.4502 4.16256 1.47153 4.04004 1.50781C3.91807 1.54394 3.81746 1.59419 3.70898 1.64844L3.70117 1.65234C3.42571 1.79006 3.10196 1.9502 2.5 1.9502C2.10941 1.9502 1.78088 1.88432 1.51562 1.79492L1.4502 1.77246V1.8418L1.45117 9.5L1.45215 9.50098C1.45361 9.5546 1.45899 9.60739 1.46777 9.66016C1.4863 9.77128 1.5219 9.91294 1.58984 10.0488C1.65691 10.183 1.75098 10.3037 1.88281 10.3916C2.01183 10.4775 2.20406 10.5498 2.5 10.5498H7.81543L7.77539 10.4766C7.63187 10.2086 7.5498 9.88418 7.5498 9.5V1.77246L7.48438 1.79492C7.21911 1.88433 6.8906 1.95021 6.5 1.9502C5.89802 1.95018 5.57429 1.79006 5.29883 1.65234L5.29102 1.64844C5.18254 1.59419 5.08193 1.54393 4.95996 1.50781C4.83744 1.47153 4.6949 1.4502 4.5 1.4502ZM8.4502 9.5C8.4502 9.79592 8.52253 9.98816 8.6084 10.1172C8.69629 10.249 8.81701 10.3431 8.95117 10.4102C9.08705 10.4781 9.22865 10.5137 9.33984 10.5322C9.39429 10.5413 9.4388 10.5458 9.46777 10.5479C9.53465 10.5526 9.60132 10.542 9.66016 10.5322C9.77129 10.5137 9.91295 10.4781 10.0488 10.4102C10.183 10.3431 10.3037 10.249 10.3916 10.1172C10.4775 9.98816 10.5498 9.79592 10.5498 9.5V7.99902C10.5495 7.69581 10.3039 7.4502 10 7.4502H8.4502V9.5Z" fill="#454545" stroke="white" stroke-width="0.1"/>
<path d="M3 3.5498H6C6.24853 3.5498 6.4502 3.75147 6.4502 4C6.4502 4.24853 6.24854 4.4502 6 4.4502H3C2.75147 4.4502 2.5498 4.24853 2.5498 4C2.5498 3.75147 2.75147 3.5498 3 3.5498Z" fill="#454545" stroke="white" stroke-width="0.1"/>
<path d="M3 5.5498H6C6.24854 5.5498 6.4502 5.75146 6.4502 6C6.4502 6.24854 6.24854 6.4502 6 6.4502H3C2.75147 6.4502 2.5498 6.24854 2.5498 6C2.5498 5.75146 2.75147 5.5498 3 5.5498Z" fill="#454545" stroke="white" stroke-width="0.1"/>
<path d="M3 7.5498H6C6.24854 7.5498 6.4502 7.75146 6.4502 8C6.4502 8.24854 6.24854 8.4502 6 8.4502H3C2.75147 8.4502 2.5498 8.24854 2.5498 8C2.5498 7.75146 2.75147 7.5498 3 7.5498Z" fill="#454545" stroke="white" stroke-width="0.1"/>
</g>
<defs>
<clipPath id="clip0_1_100">
<rect width="12" height="12" fill="white"/>
</clipPath>
</defs>
</svg>
