<svg width="11" height="10" viewBox="0 0 11 10" fill="none" xmlns="http://www.w3.org/2000/svg">
<path d="M5.49966 0.311523C3.41541 0.311523 1.71875 1.85394 1.71875 3.74872C1.71875 7.0827 5.28651 9.61732 5.28651 9.61732C5.34741 9.6615 5.42302 9.68555 5.50093 9.68555C5.57885 9.68555 5.65445 9.6615 5.71535 9.61732C5.71535 9.61732 9.28312 7.0827 9.28311 3.74872C9.28311 1.85394 7.58392 0.311523 5.49966 0.311523ZM5.49966 0.936677C7.21236 0.936677 8.59544 2.19172 8.59544 3.74872C8.59545 6.47619 5.87871 8.63109 5.5022 8.92296C5.12749 8.63255 2.40642 6.47725 2.40642 3.74872C2.40642 2.19172 3.78696 0.936677 5.49966 0.936677Z" fill="black"/>
<path d="M5.49915 2.18701C4.55399 2.18701 3.78125 2.8895 3.78125 3.74874C3.78124 4.60799 4.55398 5.31278 5.49915 5.31278C6.44433 5.31278 7.2196 4.60799 7.2196 3.74874C7.21959 2.8895 6.44432 2.18701 5.49915 2.18701ZM5.49915 2.81217C6.07277 2.81217 6.53192 3.22727 6.53193 3.74874C6.53193 4.27021 6.07277 4.68763 5.49915 4.68763C4.92554 4.68763 4.46892 4.27021 4.46892 3.74874C4.46892 3.22727 4.92554 2.81217 5.49915 2.81217Z" fill="black"/>
</svg>
