<svg width="12" height="9" viewBox="0 0 12 9" fill="none" xmlns="http://www.w3.org/2000/svg">
<path d="M0.449219 1.59305C0.449219 1.28995 0.569627 0.999258 0.783954 0.78493C0.998281 0.570603 1.28897 0.450195 1.59208 0.450195H9.59208C9.89518 0.450195 10.1859 0.570603 10.4002 0.78493C10.6145 0.999258 10.7349 1.28995 10.7349 1.59305V7.30734C10.7349 7.61044 10.6145 7.90113 10.4002 8.11546C10.1859 8.32979 9.89518 8.4502 9.59208 8.4502H1.59208C1.28897 8.4502 0.998281 8.32979 0.783954 8.11546C0.569627 7.90113 0.449219 7.61044 0.449219 7.30734V1.59305Z" stroke="#454545" stroke-width="0.9" stroke-linecap="round" stroke-linejoin="round"/>
<path d="M0.449219 1.59326L5.59208 5.02183L10.7349 1.59326" stroke="#454545" stroke-width="0.9" stroke-linecap="round" stroke-linejoin="round"/>
</svg>
