<svg width="11" height="11" viewBox="0 0 11 11" fill="none" xmlns="http://www.w3.org/2000/svg">
<path d="M3.67422 5.2498C4.83402 5.2498 5.77422 4.3096 5.77422 3.1498C5.77422 1.99001 4.83402 1.0498 3.67422 1.0498C2.51442 1.0498 1.57422 1.99001 1.57422 3.1498C1.57422 4.3096 2.51442 5.2498 3.67422 5.2498Z" fill="#454545"/>
<path d="M6.825 3.15C6.825 3.51094 6.76143 3.85752 6.64863 4.18154C6.70811 4.18564 6.76553 4.2 6.825 4.2C7.98574 4.2 8.925 3.26074 8.925 2.1C8.925 0.939258 7.98574 0 6.825 0C6.28975 0 5.80576 0.207129 5.43457 0.537305C6.27334 1.10537 6.825 2.06309 6.825 3.15ZM3.675 6.3C1.05 6.3 0 6.825 0 8.4V10.5041H7.35V8.4C7.35 6.81475 6.3 6.3 3.675 6.3Z" fill="#454545"/>
<path d="M6.82568 5.25C6.52832 5.25 6.25352 5.2582 5.99512 5.27256C5.94795 5.32383 5.90078 5.37305 5.85156 5.42022C7.15791 5.69707 8.39863 6.43535 8.39863 8.4V9.4541H10.5007V7.35C10.5007 5.76475 9.45068 5.25 6.82568 5.25Z" fill="#454545"/>
</svg>
