<svg width="4" height="4" viewBox="0 0 4 4" fill="none" xmlns="http://www.w3.org/2000/svg">
<path fill-rule="evenodd" clip-rule="evenodd" d="M1.6838 3.05861C0.896944 3.05861 0.259077 2.43188 0.259077 1.65753C0.259077 0.883184 0.896944 0.255203 1.6838 0.255203C2.47066 0.255203 3.10866 0.883184 3.10866 1.65753C3.10866 2.43188 2.47066 3.05861 1.6838 3.05861ZM3.96407 3.78418L2.93089 2.76714C3.20135 2.47316 3.36761 2.08537 3.36761 1.65753C3.36761 0.741825 2.61377 0 1.6838 0C0.753833 0 0 0.741825 0 1.65753C0 2.57199 0.753833 3.31382 1.6838 3.31382C2.08561 3.31382 2.45415 3.17496 2.74363 2.94353L3.78093 3.96431C3.83159 4.01435 3.91353 4.01435 3.96407 3.96431C4.01473 3.91553 4.01473 3.83422 3.96407 3.78418Z" fill="white"/>
</svg>
