<svg width="11" height="9" viewBox="0 0 11 9" fill="none" xmlns="http://www.w3.org/2000/svg">
<path d="M2.8981 3.24509C3.32841 3.24509 3.67725 2.93729 3.67725 2.55759C3.67725 2.1779 3.32841 1.87009 2.8981 1.87009C2.46779 1.87009 2.11896 2.1779 2.11896 2.55759C2.11896 2.93729 2.46779 3.24509 2.8981 3.24509Z" fill="white"/>
<path fill-rule="evenodd" clip-rule="evenodd" d="M4.75766 0.00926041H4.7161L1.59953 0.206344C0.873658 0.263655 0.298383 0.771265 0.233432 1.41176L0.00488365 4.16176C-0.0238131 4.4148 0.0749506 4.66619 0.274987 4.84926L4.65897 8.71759C4.84413 8.87498 5.09276 8.96076 5.34981 8.95593C5.74306 8.95289 6.11804 8.80897 6.38866 8.55718L9.69743 5.64218C10.2114 5.26619 10.292 4.59724 9.87923 4.13426L5.46928 0.238427C5.28318 0.0823212 5.03518 -0.00323725 4.77843 9.37385e-05L4.75766 0.00926041ZM4.77844 0.747177C4.80887 0.738733 4.8415 0.738733 4.87193 0.747177L9.26111 4.62009C9.30356 4.79187 9.23091 4.96994 9.07411 5.07843L5.75496 8.00718C5.64562 8.11184 5.49514 8.17577 5.33422 8.18593H5.24592L0.872331 4.29468C0.85836 4.2622 0.85836 4.22632 0.872331 4.19384L1.10088 1.44384C1.14166 1.19442 1.35969 0.996483 1.64109 0.953427L4.75766 0.756344L4.77844 0.747177Z" fill="white"/>
</svg>