<svg width="5" height="5" viewBox="0 0 5 5" fill="none" xmlns="http://www.w3.org/2000/svg">
<path d="M2.5 0C3.88075 0 5 1.11925 5 2.5C5 3.88075 3.88075 5 2.5 5C1.11925 5 0 3.88075 0 2.5C0 1.11925 1.11925 0 2.5 0ZM3.4 1.3C3.37374 1.2803 3.34385 1.26597 3.31205 1.25782C3.28024 1.24967 3.24715 1.24787 3.21464 1.25251C3.18214 1.25716 3.15088 1.26815 3.12263 1.28488C3.09438 1.30161 3.0697 1.32374 3.05 1.35L2.5 2.08325L1.95 1.35C1.9303 1.32374 1.90562 1.30161 1.87737 1.28488C1.84912 1.26815 1.81786 1.25716 1.78536 1.25251C1.75285 1.24787 1.71976 1.24967 1.68795 1.25782C1.65615 1.26597 1.62626 1.2803 1.6 1.3C1.57374 1.3197 1.55161 1.34438 1.53488 1.37263C1.51815 1.40088 1.50716 1.43214 1.50251 1.46464C1.49787 1.49715 1.49967 1.53024 1.50782 1.56205C1.51597 1.59385 1.5303 1.62374 1.55 1.65L2.1875 2.5L1.55 3.35C1.51022 3.40304 1.49314 3.46972 1.50251 3.53536C1.51189 3.60099 1.54696 3.66022 1.6 3.7C1.65304 3.73978 1.71972 3.75686 1.78536 3.74749C1.85099 3.73811 1.91022 3.70304 1.95 3.65L2.5 2.91675L3.05 3.65C3.08978 3.70304 3.14901 3.73811 3.21464 3.74749C3.28028 3.75686 3.34696 3.73978 3.4 3.7C3.45304 3.66022 3.48811 3.60099 3.49749 3.53536C3.50686 3.46972 3.48978 3.40304 3.45 3.35L2.8125 2.5L3.45 1.65C3.4697 1.62374 3.48403 1.59385 3.49218 1.56205C3.50033 1.53024 3.50213 1.49715 3.49749 1.46464C3.49284 1.43214 3.48185 1.40088 3.46512 1.37263C3.44839 1.34438 3.42626 1.3197 3.4 1.3Z" fill="#555555"/>
</svg>
