<svg width="7" height="7" viewBox="0 0 7 7" fill="none" xmlns="http://www.w3.org/2000/svg">
<path d="M2.55078 1.0498C2.55078 0.850892 2.6298 0.660127 2.77045 0.519475C2.9111 0.378822 3.10187 0.299805 3.30078 0.299805C3.49969 0.299805 3.69046 0.378822 3.83111 0.519475C3.97176 0.660127 4.05078 0.850892 4.05078 1.0498C4.48143 1.25344 4.84856 1.57043 5.1128 1.96679C5.37704 2.36316 5.52845 2.82396 5.55078 3.2998V4.4248C5.579 4.65794 5.66157 4.8812 5.79184 5.0766C5.9221 5.272 6.09643 5.43409 6.30078 5.5498H0.300781C0.505133 5.43409 0.67946 5.272 0.809726 5.0766C0.939993 4.8812 1.02256 4.65794 1.05078 4.4248V3.2998C1.07312 2.82396 1.22452 2.36316 1.48876 1.96679C1.75301 1.57043 2.12013 1.25344 2.55078 1.0498Z" stroke="#454545" stroke-width="0.6" stroke-linecap="round" stroke-linejoin="round"/>
<path d="M1.80078 5.5498V5.7373C1.80078 5.88649 1.95882 6.02956 2.24012 6.13505C2.52143 6.24054 2.90296 6.2998 3.30078 6.2998C3.69861 6.2998 4.08014 6.24054 4.36144 6.13505C4.64275 6.02956 4.80078 5.88649 4.80078 5.7373V5.5498" stroke="#454545" stroke-width="0.6" stroke-linecap="round" stroke-linejoin="round"/>
</svg>
