<svg width="5" height="5" viewBox="0 0 5 5" fill="none" xmlns="http://www.w3.org/2000/svg">
<path d="M2.5 0C3.88075 0 5 1.05316 5 2.35239C5 3.65161 3.88075 4.70478 2.5 4.70478C1.11925 4.70478 0 3.65161 0 2.35239C0 1.05316 1.11925 0 2.5 0ZM3.4 1.22324C3.37374 1.20471 3.34385 1.19122 3.31205 1.18355C3.28024 1.17589 3.24715 1.17419 3.21464 1.17856C3.18214 1.18293 3.15088 1.19328 3.12263 1.20902C3.09438 1.22476 3.0697 1.24558 3.05 1.27029L2.5 1.96025L1.95 1.27029C1.9303 1.24558 1.90562 1.22476 1.87737 1.20902C1.84912 1.19328 1.81786 1.18293 1.78536 1.17856C1.75285 1.17419 1.71976 1.17589 1.68795 1.18355C1.65615 1.19122 1.62626 1.20471 1.6 1.22324C1.57374 1.24178 1.55161 1.265 1.53488 1.29158C1.51815 1.31816 1.50716 1.34758 1.50251 1.37817C1.49787 1.40875 1.49967 1.43989 1.50782 1.46982C1.51597 1.49974 1.5303 1.52786 1.55 1.55258L2.1875 2.35239L1.55 3.1522C1.51022 3.20211 1.49314 3.26485 1.50251 3.32661C1.51189 3.38838 1.54696 3.4441 1.6 3.48154C1.65304 3.51897 1.71972 3.53504 1.78536 3.52622C1.85099 3.5174 1.91022 3.4844 1.95 3.43449L2.5 2.74453L3.05 3.43449C3.08978 3.4844 3.14901 3.5174 3.21464 3.52622C3.28028 3.53504 3.34696 3.51897 3.4 3.48154C3.45304 3.4441 3.48811 3.38838 3.49749 3.32661C3.50686 3.26485 3.48978 3.20211 3.45 3.1522L2.8125 2.35239L3.45 1.55258C3.4697 1.52786 3.48403 1.49974 3.49218 1.46982C3.50033 1.43989 3.50213 1.40875 3.49749 1.37817C3.49284 1.34758 3.48185 1.31816 3.46512 1.29158C3.44839 1.265 3.42626 1.24178 3.4 1.22324Z" fill="#555555"/>
</svg>
