<svg width="17" height="17" viewBox="0 0 17 17" fill="none" xmlns="http://www.w3.org/2000/svg">
<path d="M0.601562 13.8688H3.93484L12.6847 4.77971C12.9036 4.55236 13.0772 4.28246 13.1956 3.98541C13.3141 3.68836 13.3751 3.36998 13.3751 3.04846C13.3751 2.72694 13.3141 2.40856 13.1956 2.11151C13.0772 1.81446 12.9036 1.54456 12.6847 1.31721C12.4658 1.08985 12.206 0.90951 11.92 0.786468C11.6341 0.663427 11.3276 0.600098 11.0181 0.600098C10.7085 0.600098 10.4021 0.663427 10.1161 0.786468C9.83013 0.90951 9.5703 1.08985 9.35143 1.31721L0.601562 10.4063V13.8688Z" stroke="#454545" stroke-width="1.2" stroke-linecap="round" stroke-linejoin="round"/>
<path d="M10.6016 13.0029H15.6015" stroke="#454545" stroke-width="1.2" stroke-linecap="round" stroke-linejoin="round"/>
<path d="M13.1016 10.4062V15.6" stroke="#454545" stroke-width="1.2" stroke-linecap="round" stroke-linejoin="round"/>
</svg>
