<svg width="13" height="8" viewBox="0 0 13 8" fill="none" xmlns="http://www.w3.org/2000/svg">
<path d="M3.81745 6.3501H8.81296C8.95581 6.3501 9.0928 6.30746 9.19381 6.23156C9.29482 6.15566 9.35156 6.05271 9.35156 5.94538V0.75482C9.35156 0.647481 9.29482 0.544538 9.19381 0.468638C9.0928 0.392738 8.95581 0.350098 8.81296 0.350098H0.890162C0.747317 0.350098 0.610322 0.392738 0.509315 0.468638C0.408308 0.544538 0.351563 0.647481 0.351562 0.75482V5.94133C0.351563 6.04867 0.408308 6.15161 0.509315 6.22751C0.610322 6.30341 0.747317 6.34605 0.890162 6.34605H1.59034" stroke="black" stroke-width="0.7"/>
<path d="M10.0779 6.3501H9.35156V1.3501H11.0726C11.098 1.3501 11.123 1.35765 11.146 1.37225C11.169 1.38684 11.1895 1.40813 11.2059 1.43464L12.3112 3.25831C12.3374 3.30177 12.3516 3.35646 12.3516 3.4129V6.3501H11.5989" stroke="black" stroke-width="0.7"/>
<path d="M2.35156 7.3501C2.90385 7.3501 3.35156 6.90238 3.35156 6.3501C3.35156 5.79781 2.90385 5.3501 2.35156 5.3501C1.79928 5.3501 1.35156 5.79781 1.35156 6.3501C1.35156 6.90238 1.79928 7.3501 2.35156 7.3501Z" stroke="black" stroke-width="0.7"/>
<path d="M10.3516 7.3501C10.9038 7.3501 11.3516 6.90238 11.3516 6.3501C11.3516 5.79781 10.9038 5.3501 10.3516 5.3501C9.79928 5.3501 9.35156 5.79781 9.35156 6.3501C9.35156 6.90238 9.79928 7.3501 10.3516 7.3501Z" stroke="black" stroke-width="0.7"/>
</svg>
