<svg width="5" height="5" viewBox="0 0 5 5" fill="none" xmlns="http://www.w3.org/2000/svg">
<path d="M2.5 0C3.88075 0 5 1.11881 5 2.49901C5.00052 3.15512 4.74289 3.78511 4.28272 4.25298C3.82256 4.72084 3.19679 4.98904 2.54051 4.99967C1.88422 5.0103 1.25008 4.76251 0.774999 4.3098C0.299914 3.85708 0.0219971 3.23576 0.00125003 2.57998L0 2.49901L0.000999987 2.42904C0.038 1.08132 1.1425 0 2.5 0ZM2.5 2.24911H2.25L2.22075 2.25086C2.15999 2.25808 2.10399 2.28733 2.06335 2.33307C2.02272 2.3788 2.00028 2.43784 2.00028 2.49901C2.00028 2.56018 2.02272 2.61922 2.06335 2.66495C2.10399 2.71069 2.15999 2.73994 2.22075 2.74716L2.25 2.74891V3.49862L2.25175 3.52785C2.25833 3.58364 2.28352 3.63558 2.32325 3.67529C2.36299 3.71501 2.41495 3.74019 2.47075 3.74677L2.5 3.74852H2.75L2.77925 3.74677C2.83505 3.74019 2.88701 3.71501 2.92675 3.67529C2.96648 3.63558 2.99167 3.58364 2.99825 3.52785L3 3.49862L2.99825 3.46938C2.99227 3.41839 2.97073 3.37048 2.93656 3.33217C2.90239 3.29385 2.85724 3.26698 2.80725 3.25521L2.77925 3.25021L2.75 3.24871V2.49901L2.74825 2.46977C2.74167 2.41399 2.71648 2.36205 2.67675 2.32233C2.63701 2.28262 2.58505 2.25744 2.52925 2.25086L2.5 2.24911ZM2.5025 1.49941L2.47075 1.50116C2.40999 1.50838 2.35399 1.53763 2.31335 1.58336C2.27272 1.6291 2.25028 1.68814 2.25028 1.74931C2.25028 1.81047 2.27272 1.86952 2.31335 1.91525C2.35399 1.96099 2.40999 1.99024 2.47075 1.99746L2.5 1.99921L2.53175 1.99746C2.59251 1.99024 2.64851 1.96099 2.68915 1.91525C2.72978 1.86952 2.75222 1.81047 2.75222 1.74931C2.75222 1.68814 2.72978 1.6291 2.68915 1.58336C2.64851 1.53763 2.59251 1.50838 2.53175 1.50116L2.5025 1.49941Z" fill="#888888"/>
</svg>
