<svg width="11" height="11" viewBox="0 0 11 11" fill="none" xmlns="http://www.w3.org/2000/svg">
<path d="M4.43164 2.36816L4.42871 2.38086L4.41699 2.38477L4.21582 2.46191C4.16375 2.48184 4.11219 2.50272 4.06152 2.52539L3.86523 2.61328L3.85352 2.61816L3.84277 2.61328L2.53809 1.91016L1.91113 2.53711L2.61426 3.8418L2.61914 3.85254L2.61426 3.86426L2.52637 4.06055C2.50369 4.11121 2.48281 4.16277 2.46289 4.21484L2.38574 4.41602L2.38184 4.42773L2.36914 4.43066L0.951172 4.85547V5.74316L2.36914 6.16895L2.38184 6.17188L2.38574 6.18359L2.46289 6.38477C2.48282 6.43683 2.5037 6.48838 2.52637 6.53906L2.61426 6.73535L2.61914 6.74707L2.61426 6.75781L1.91113 8.06152L2.53809 8.68848L3.84277 7.98633L3.85352 7.98145L3.86523 7.98633L4.06152 8.07422C4.11219 8.09687 4.16375 8.11776 4.21582 8.1377L4.41699 8.21484L4.42871 8.21875L4.43164 8.23145L4.85645 9.64941H5.74512L6.16992 8.23145L6.17285 8.21875L6.18457 8.21484L6.38574 8.1377C6.4378 8.11776 6.48935 8.09687 6.54004 8.07422L6.73633 7.98633L6.74805 7.98145L6.75879 7.98633L8.0625 8.68848L8.68945 8.06152L7.9873 6.75781L7.98242 6.74707L7.9873 6.73535L8.0752 6.53906C8.09785 6.48842 8.11873 6.43685 8.13867 6.38477L8.21582 6.18359L8.21973 6.17188L8.23242 6.16895L9.65039 5.74316V4.85547L8.23242 4.43066L8.21973 4.42773L8.21582 4.41602L8.13867 4.21484C8.11873 4.16278 8.09785 4.11122 8.0752 4.06055L7.9873 3.86426L7.98242 3.85254L7.9873 3.8418L8.68945 2.53711L8.0625 1.91016L6.75879 2.61328L6.74805 2.61816L6.73633 2.61328L6.54004 2.52539C6.48936 2.50272 6.4378 2.48184 6.38574 2.46191L6.18457 2.38477L6.17285 2.38086L6.16992 2.36816L5.74512 0.950195H4.85645L4.43164 2.36816ZM5.30078 3.08691C6.52273 3.08691 7.51367 4.07787 7.51367 5.2998C7.51367 6.52175 6.52273 7.5127 5.30078 7.5127C4.07885 7.5127 3.08789 6.52175 3.08789 5.2998C3.08789 4.07787 4.07885 3.08691 5.30078 3.08691ZM5.30078 4.0127C4.58974 4.0127 4.01367 4.58876 4.01367 5.2998C4.01367 6.01085 4.58974 6.58691 5.30078 6.58691C6.01182 6.58691 6.58789 6.01085 6.58789 5.2998C6.58789 4.58876 6.01182 4.0127 5.30078 4.0127ZM10.5762 6.0957L10.5713 6.10254L10.2588 6.52148L10.2539 6.52832L10.2461 6.53027L9.10059 6.87305L9.66797 7.92676L9.67188 7.93359L9.6709 7.94238L9.59473 8.45898L9.59375 8.4668L8.46777 9.59277L8.45996 9.59375L7.94336 9.66992L7.93457 9.6709L7.92773 9.66699L6.87402 9.09961L6.53125 10.2451L6.5293 10.2529L6.52246 10.2578L6.10352 10.5703L6.09668 10.5752H4.50488L4.49805 10.5703L4.0791 10.2578L4.07227 10.2529L4.07031 10.2451L3.72656 9.09961L2.67383 9.66699L2.66699 9.6709L2.6582 9.66992L2.1416 9.59375L2.13379 9.59277L1.00781 8.4668L1.00684 8.45898L0.930664 7.94238L0.929688 7.93359L0.933594 7.92676L1.5 6.87305L0.355469 6.53027L0.347656 6.52832L0.342773 6.52148L0.0302734 6.10254L0.0253906 6.0957V4.50391L0.0302734 4.49707L0.342773 4.07812L0.347656 4.07129L0.355469 4.06934L1.5 3.72559L0.933594 2.67285L0.929688 2.66602L0.930664 2.65723L1.00684 2.14062L1.00781 2.13281L2.13379 1.00684L2.1416 1.00586L2.6582 0.929688L2.66699 0.928711L2.67383 0.932617L3.72656 1.49902L4.07031 0.354492L4.07227 0.34668L4.0791 0.341797L4.49805 0.0292969L4.50488 0.0244141H6.09668L6.10352 0.0292969L6.52246 0.341797L6.5293 0.34668L6.53125 0.354492L6.87402 1.49902L7.92773 0.932617L7.93457 0.928711L7.94336 0.929688L8.45996 1.00586L8.46777 1.00684L9.59375 2.13281L9.59473 2.14062L9.6709 2.65723L9.67188 2.66602L9.66797 2.67285L9.10059 3.72559L10.2461 4.06934L10.2539 4.07129L10.2588 4.07812L10.5713 4.49707L10.5762 4.50391V6.0957Z" fill="#454545" stroke="#454545" stroke-width="0.05"/>
</svg>
