<svg width="6" height="6" viewBox="0 0 6 6" fill="none" xmlns="http://www.w3.org/2000/svg">
<g clip-path="url(#clip0_1_1118)">
<path d="M1 2H5" stroke="#002F70" stroke-width="0.5" stroke-linecap="round" stroke-linejoin="round"/>
<path d="M2.5 3V4.5" stroke="#002F70" stroke-width="0.5" stroke-linecap="round" stroke-linejoin="round"/>
<path d="M3.5 3V4.5" stroke="#002F70" stroke-width="0.5" stroke-linecap="round" stroke-linejoin="round"/>
<path d="M1.25 2L1.5 5C1.5 5.13261 1.55268 5.25979 1.64645 5.35355C1.74021 5.44732 1.86739 5.5 2 5.5H4C4.13261 5.5 4.25979 5.44732 4.35355 5.35355C4.44732 5.25979 4.5 5.13261 4.5 5L4.75 2" stroke="#002F70" stroke-width="0.5" stroke-linecap="round" stroke-linejoin="round"/>
<path d="M2.25 2V1.25C2.25 1.1837 2.27634 1.12011 2.32322 1.07322C2.37011 1.02634 2.4337 1 2.5 1H3.5C3.5663 1 3.62989 1.02634 3.67678 1.07322C3.72366 1.12011 3.75 1.1837 3.75 1.25V2" stroke="#002F70" stroke-width="0.5" stroke-linecap="round" stroke-linejoin="round"/>
</g>
<defs>
<clipPath id="clip0_1_1118">
<rect width="6" height="6" fill="white"/>
</clipPath>
</defs>
</svg>
